<?xml version="1.0" standalone="no"?><!DOCTYPE svg PUBLIC "-//W3C//DTD SVG 1.1//EN" "http://www.w3.org/Graphics/SVG/1.1/DTD/svg11.dtd"><svg t="1662610436577" class="icon" viewBox="0 0 1024 1024" version="1.1" xmlns="http://www.w3.org/2000/svg" p-id="2494" width="32" height="32" xmlns:xlink="http://www.w3.org/1999/xlink"><path d="M85.333333 85.333333m42.666667 0l768 0q42.666667 0 42.666667 42.666667l0 0q0 42.666667-42.666667 42.666667l-768 0q-42.666667 0-42.666667-42.666667l0 0q0-42.666667 42.666667-42.666667Z" p-id="2495" fill="#ffffff"></path><path d="M246.346667 923.125333a42.666667 42.666667 0 0 1-67.456-52.213333l1.429333-1.845333L298.026667 725.333333H202.666667a53.333333 53.333333 0 0 1-53.333334-53.333333V288a53.333333 53.333333 0 0 1 53.333334-53.333333h618.666666a53.333333 53.333333 0 0 1 53.333334 53.333333v384a53.333333 53.333333 0 0 1-53.333334 53.333333h-100.064l116.949334 142.816 1.429333 1.845334a42.666667 42.666667 0 0 1-67.456 52.213333L610.965333 725.333333H408.32L246.346667 923.125333zM789.333333 320H234.666667v320h554.666666V320z" p-id="2496" fill="#ffffff"></path><path d="M665.696 376.8a42.666667 42.666667 0 0 1 54.613333 65.525333l-1.792 1.493334-137.162666 108.085333a42.666667 42.666667 0 0 1-52.778667 0.032l-1.813333-1.514667-58.912-51.861333-95.904 73.6a42.666667 42.666667 0 0 1-58.4-6.122667l-1.429334-1.76a42.666667 42.666667 0 0 1 6.122667-58.4l1.76-1.418666 123.744-94.933334a42.666667 42.666667 0 0 1 52.373333 0.32l1.792 1.493334 58.538667 51.530666 109.248-86.08z" p-id="2497" fill="#ffffff"></path></svg>