<?xml version="1.0" encoding="UTF-8"?>
<svg width="24px" height="24px" viewBox="0 0 24 24" version="1.1" xmlns="http://www.w3.org/2000/svg" xmlns:xlink="http://www.w3.org/1999/xlink">
    <title>矩形</title>
    <g id="控件" stroke="none" stroke-width="1" fill="none" fill-rule="evenodd">
        <g id="编组-6" transform="translate(-755.000000, -291.000000)">
            <g id="编组备份-2" transform="translate(755.000000, 291.000000)">
                <rect id="矩形" x="0" y="0" width="24" height="24"></rect>
                <path d="M19.8115434,8.65099995 C20.1589326,9.3934233 20.0181458,10.27266 19.4563095,10.8694947 C18.8944733,11.4663294 18.0253368,11.6599269 17.2632999,11.3579809 C16.5012629,11.056035 16.0006075,10.3196775 16.0000435,9.5 C16.0000435,10.6045694 15.104613,11.5 14.0000435,11.5 C12.895474,11.5 12.0000435,10.6045694 12.0000435,9.5 C12.0000435,10.6045694 11.104613,11.5 10.0000435,11.5 C8.89547403,11.5 8.00004354,10.6045694 8.00004354,9.5 C7.99947949,10.3196775 7.49882406,11.056035 6.73678713,11.3579809 C5.97475019,11.6599269 5.10561374,11.4663294 4.54377746,10.8694947 C3.98194118,10.27266 3.84115443,9.3934233 4.18854359,8.65099995 L4.82604358,5.78299999 C4.92773145,5.32555846 5.33343589,5.00008042 5.80204358,5 L18.1980434,5 C18.6666511,5.00008042 19.0723555,5.32555846 19.1740434,5.78299999 L19.8115434,8.65099995 L19.8115434,8.65099995 Z M18.9865434,12.3339999 C18.9955434,12.3879999 19.0000436,12.4434999 19.0000436,12.4999999 L19.0000436,18.4999998 C19.0000436,19.0522846 18.5523282,19.4999998 18.0000436,19.4999998 L6.00004358,19.4999998 C5.44775883,19.4999998 5.00004358,19.0522846 5.00004358,18.4999998 L5.00004358,12.4999999 C5.00004358,12.4434999 5.00504357,12.3879999 5.01354358,12.3339999 C5.33074747,12.4442384 5.66423009,12.5003541 6.00004358,12.4999999 C6.73817599,12.5010191 7.45058082,12.2288804 8.00004358,11.7359999 C8.54950628,12.2288804 9.26191111,12.5010191 10.0000436,12.4999999 C10.7381759,12.5010191 11.4505808,12.2288804 12.0000436,11.7359999 C12.5495062,12.2288804 13.2619111,12.5010191 14.0000436,12.4999999 C14.7381759,12.5010191 15.4505807,12.2288804 16.0000436,11.7359999 C16.5495062,12.2288804 17.261911,12.5010191 18.0000436,12.4999999 C18.3455434,12.4999999 18.6775434,12.4414999 18.9865434,12.3339999 L18.9865434,12.3339999 Z M8.25004355,14.4999999 C7.83582999,14.4999999 7.50004356,14.8357863 7.50004356,15.2499999 L7.50004356,16.7499999 C7.50004356,17.1642134 7.83582999,17.4999999 8.25004355,17.4999999 C8.66425711,17.4999999 9.00004356,17.1642134 9.00004356,16.7499999 L9.00004356,15.2499999 C9.00004356,14.8357863 8.66425711,14.4999999 8.25004355,14.4999999 Z" id="形状" fill="#FFFFFF" fill-rule="nonzero"></path>
            </g>
        </g>
    </g>
</svg>