<?xml version="1.0" encoding="UTF-8"?>
<svg width="24px" height="24px" viewBox="0 0 24 24" version="1.1" xmlns="http://www.w3.org/2000/svg" xmlns:xlink="http://www.w3.org/1999/xlink">
    <title>矩形</title>
    <g id="控件" stroke="none" stroke-width="1" fill="none" fill-rule="evenodd">
        <g id="编组备份-2">
            <rect id="矩形" x="0" y="0" width="24" height="24"></rect>
            <path d="M18,4 C18.5522847,4 19,4.44771525 19,5 L19,19 C19,19.5522847 18.5522847,20 18,20 L6,20 C5.44771525,20 5,19.5522847 5,19 L5,5 C5,4.44771525 5.44771525,4 6,4 L18,4 Z M13,14 L8,14 L8,15 L13,15 L13,14 Z M16,11 L8,11 L8,12 L16,12 L16,11 Z M16,8 L8,8 L8,9 L16,9 L16,8 Z" id="形状结合" fill="#FFFFFF"></path>
        </g>
    </g>
</svg>