<?xml version="1.0" encoding="UTF-8"?>
<svg width="24px" height="24px" viewBox="0 0 24 24" version="1.1" xmlns="http://www.w3.org/2000/svg" xmlns:xlink="http://www.w3.org/1999/xlink">
    <title>矩形</title>
    <g id="控件" stroke="none" stroke-width="1" fill="none" fill-rule="evenodd">
        <g id="编组备份-2">
            <rect id="矩形" x="0" y="0" width="24" height="24"></rect>
            <path d="M18,4 C18.5522847,4 19,4.44771525 19,5 L19,19 C19,19.5522847 18.5522847,20 18,20 L6,20 C5.44771525,20 5,19.5522847 5,19 L5,5 C5,4.44771525 5.44771525,4 6,4 L18,4 Z M16,16 L8,16 L8,17 L16,17 L16,16 Z M13,14 L8,14 L8,15 L13,15 L13,14 Z M13.5,5 L12.5,5 L12.5,9.17231728 L14.424,8.388 L16.5,10.034217 L16.5,5 L15.5,5 L15.5,7.965 L14.586594,7.2419195 L13.5,7.685 L13.5,5 Z" id="形状结合" fill="#FFFFFF"></path>
            <g id="编组-4" transform="translate(14.500000, 7.500000) rotate(-270.000000) translate(-14.500000, -7.500000) translate(11.500000, 5.500000)"></g>
        </g>
    </g>
</svg>