<?xml version="1.0" standalone="no"?><!DOCTYPE svg PUBLIC "-//W3C//DTD SVG 1.1//EN" "http://www.w3.org/Graphics/SVG/1.1/DTD/svg11.dtd"><svg class="icon" width="48px" height="48.00px" viewBox="0 0 1024 1024" version="1.1" xmlns="http://www.w3.org/2000/svg"><path fill="#ffffff" d="M512 128a298.666667 298.666667 0 1 1 0 597.333333 298.666667 298.666667 0 0 1 0-597.333333z m31.701333 179.498667a42.666667 42.666667 0 0 0-60.373333 0l-90.453333 90.496a42.666667 42.666667 0 0 0 0 60.373333l90.453333 90.496a42.666667 42.666667 0 0 0 60.373333 0l90.496-90.496a42.666667 42.666667 0 0 0 0-60.373333z m-30.165333 30.165333l90.453333 90.538667-90.453333 90.453333-90.538667-90.453333 90.538667-90.538667z"  /><path fill="#ffffff" d="M460.544 764.16l-54.912 95.146667a21.333333 21.333333 0 0 1-33.493333 4.565333l-2.261334-2.645333-56.192-77.354667-95.061333-9.984a21.333333 21.333333 0 0 1-17.706667-28.757333l1.493334-3.114667 52.48-90.88a340.778667 340.778667 0 0 0 205.653333 113.024z m308.608-113.024l52.48 90.88 1.450667 3.114667a21.333333 21.333333 0 0 1-13.994667 28.032l-3.712 0.725333-95.061333 9.984-56.192 77.354667-2.261334 2.645333a21.333333 21.333333 0 0 1-31.061333-1.152l-2.432-3.413333-54.912-95.146667a340.778667 340.778667 0 0 0 205.653333-113.024z"  /></svg>