<?xml version="1.0" encoding="UTF-8"?>
<svg width="24px" height="24px" viewBox="0 0 24 24" version="1.1" xmlns="http://www.w3.org/2000/svg" xmlns:xlink="http://www.w3.org/1999/xlink">
    <title>矩形</title>
    <g id="控件" stroke="none" stroke-width="1" fill="none" fill-rule="evenodd">
        <g id="编组-2备份">
            <g id="编组备份-2">
                <rect id="矩形" x="0" y="0" width="24" height="24"></rect>
            </g>
            <g id="经销商" transform="translate(4.000000, 4.000000)" fill="#FFFFFF" fill-rule="nonzero">
                <path d="M4.37323833,3.80911481 C4.40097202,0.161068707 7.4911444,0 7.99995083,0 C8.52795751,0 11.6053297,0.160002022 11.62773,3.80911481 C11.62773,3.80911481 11.6170632,6.04060968 11.62773,6.09501036 C11.574396,8.37770588 9.80584031,9.14571558 9.81437376,9.90519185 C9.806907,11.8070826 14.0672275,12.2401547 15.2555092,13.3335018 C16.1835209,14.3895152 15.9808517,16.0002022 15.9808517,16.0002022 L0.0211833282,16.0002022 C0.0211833282,16.0002022 -0.187885986,14.3895152 0.746525839,13.3335018 C1.94120761,12.2401547 6.20259479,11.815616 6.18766126,9.90519185 C6.20579482,9.14678227 4.44683926,8.36917244 4.37430501,6.09501036 C4.38497182,6.03634294 4.38497182,4.00858399 4.37430501,3.80911481 L4.37323833,3.80911481 Z M8.5119573,13.2705677 L9.53917029,12.1910874 L8.00101752,10.5740003 L6.46179807,12.1910874 L7.49007772,13.2705677 L6.91193708,16.0002022 L9.08796458,16.0002022 L8.5119573,13.2705677 Z" id="形状"></path>
            </g>
        </g>
    </g>
</svg>