<?xml version="1.0" standalone="no"?><!DOCTYPE svg PUBLIC "-//W3C//DTD SVG 1.1//EN" "http://www.w3.org/Graphics/SVG/1.1/DTD/svg11.dtd"><svg t="1662610223113" class="icon" viewBox="0 0 1024 1024" version="1.1" xmlns="http://www.w3.org/2000/svg" p-id="1892" width="32" height="32" xmlns:xlink="http://www.w3.org/1999/xlink"><path d="M773.333333 85.333333c82.474667 0 149.333333 66.858667 149.333334 149.333334v208.245333a42.666667 42.666667 0 1 1-85.333334 0V234.666667a64 64 0 0 0-61.6-63.957334L773.333333 170.666667h-522.666666a64 64 0 0 0-63.957334 61.6L186.666667 234.666667v554.666666a64 64 0 0 0 61.6 63.957334L250.666667 853.333333H533.333333a42.666667 42.666667 0 1 1 0 85.333334H250.666667c-82.474667 0-149.333333-66.858667-149.333334-149.333334V234.666667c0-82.474667 66.858667-149.333333 149.333334-149.333334h522.666666z" p-id="1893" fill="#ffffff"></path><path d="M293.333333 266.666667m42.666667 0l352 0q42.666667 0 42.666667 42.666666l0 0q0 42.666667-42.666667 42.666667l-352 0q-42.666667 0-42.666667-42.666667l0 0q0-42.666667 42.666667-42.666666Z" p-id="1894" fill="#ffffff"></path><path d="M293.333333 416m42.666667 0l138.666667 0q42.666667 0 42.666666 42.666667l0 0q0 42.666667-42.666666 42.666666l-138.666667 0q-42.666667 0-42.666667-42.666666l0 0q0-42.666667 42.666667-42.666667Z" p-id="1895" fill="#ffffff"></path><path d="M607.392 857.546667l0.394667 1.92c6.112 26.432 37.930667 37.888 59.541333 20.757333l56.853333-45.056 88.277334 87.52a37.333333 37.333333 0 0 0 53.194666-0.629333l87.274667-90.709334 1.450667-1.6a37.333333 37.333333 0 0 0-3.178667-51.850666l-88.981333-81.258667 53.194666-62.176c18.848-22.037333 6.485333-56.213333-22.112-61.077333l-295.029333-50.176c-25.493333-4.341333-47.573333 17.930667-43.008 43.392l52.128 290.944z m30.730667-251.818667l177.738666 30.229333-33.866666 39.605334-1.344 1.664a37.333333 37.333333 0 0 0 4.533333 50.165333l87.36 79.786667-34.432 35.808-84.885333-84.16-1.578667-1.472a37.333333 37.333333 0 0 0-47.893333-1.269334L669.877333 782.933333l-31.754666-177.205333z" p-id="1896" fill="#ffffff"></path></svg>