<?xml version="1.0" standalone="no"?><!DOCTYPE svg PUBLIC "-//W3C//DTD SVG 1.1//EN" "http://www.w3.org/Graphics/SVG/1.1/DTD/svg11.dtd"><svg t="1662610238575" class="icon" viewBox="0 0 1024 1024" version="1.1" xmlns="http://www.w3.org/2000/svg" p-id="2193" width="32" height="32" xmlns:xlink="http://www.w3.org/1999/xlink"><path d="M773.333333 85.333333c82.474667 0 149.333333 66.858667 149.333334 149.333334v208.245333a42.666667 42.666667 0 1 1-85.333334 0V234.666667a64 64 0 0 0-61.6-63.957334L773.333333 170.666667h-522.666666a64 64 0 0 0-63.957334 61.6L186.666667 234.666667v554.666666a64 64 0 0 0 61.6 63.957334L250.666667 853.333333H533.333333a42.666667 42.666667 0 1 1 0 85.333334H250.666667c-82.474667 0-149.333333-66.858667-149.333334-149.333334V234.666667c0-82.474667 66.858667-149.333333 149.333334-149.333334h522.666666z" p-id="2194" fill="#ffffff"></path><path d="M293.333333 266.666667m42.666667 0l352 0q42.666667 0 42.666667 42.666666l0 0q0 42.666667-42.666667 42.666667l-352 0q-42.666667 0-42.666667-42.666667l0 0q0-42.666667 42.666667-42.666666Z" p-id="2195" fill="#ffffff"></path><path d="M293.333333 416m42.666667 0l138.666667 0q42.666667 0 42.666666 42.666667l0 0q0 42.666667-42.666666 42.666666l-138.666667 0q-42.666667 0-42.666667-42.666666l0 0q0-42.666667 42.666667-42.666667Z" p-id="2196" fill="#ffffff"></path><path d="M904.448 600.032c39.157333 67.818667 28.053333 150.869333-21.770667 206.005333l52.181334 79.605334a37.333333 37.333333 0 0 1-61.365334 42.485333l-5.344-7.648-46.272-70.890667c-80.928 35.114667-177.098667 4.682667-222.272-73.557333-48.597333-84.181333-19.754667-191.818667 64.426667-240.426667 84.181333-48.597333 191.818667-19.754667 240.426667 64.426667z m-203.093333 0.245333a101.333333 101.333333 0 1 0 101.333333 175.509334 101.333333 101.333333 0 0 0-101.333333-175.509334z" p-id="2197" fill="#ffffff"></path></svg>