<?xml version="1.0" standalone="no"?><!DOCTYPE svg PUBLIC "-//W3C//DTD SVG 1.1//EN" "http://www.w3.org/Graphics/SVG/1.1/DTD/svg11.dtd"><svg t="1638257544921" class="icon" viewBox="0 0 1024 1024" version="1.1" xmlns="http://www.w3.org/2000/svg" p-id="1085" xmlns:xlink="http://www.w3.org/1999/xlink" width="48" height="48"><defs><style type="text/css"></style></defs><path d="M237.248 192H352a32 32 0 0 0 0-64h-192a32 32 0 0 0-32 32v192a32 32 0 0 0 64 0V237.248l137.344 137.344a32 32 0 1 0 45.248-45.248L237.248 192zM832 237.248V352a32 32 0 1 0 64 0v-192a32 32 0 0 0-32-32h-192a32 32 0 1 0 0 64h114.752l-137.344 137.344a32 32 0 1 0 45.248 45.248L832 237.248zM237.248 832H352a32 32 0 1 1 0 64h-192a32 32 0 0 1-32-32v-192a32 32 0 1 1 64 0v114.752l137.344-137.344a32 32 0 1 1 45.248 45.248L237.248 832zM832 786.752V672a32 32 0 1 1 64 0v192a32 32 0 0 1-32 32h-192a32 32 0 1 1 0-64h114.752l-137.344-137.344a32 32 0 1 1 45.248-45.248L832 786.752z" fill="#666666" p-id="1086"></path></svg>