<?xml version="1.0" standalone="no"?><!DOCTYPE svg PUBLIC "-//W3C//DTD SVG 1.1//EN" "http://www.w3.org/Graphics/SVG/1.1/DTD/svg11.dtd"><svg t="1662608036654" class="icon" viewBox="0 0 1024 1024" version="1.1" xmlns="http://www.w3.org/2000/svg" p-id="37244" width="32" height="32" xmlns:xlink="http://www.w3.org/1999/xlink"><path d="M492.544 170.496C296.96 170.496 138.24 323.584 138.24 512s158.72 341.504 354.304 341.504 354.304-152.576 354.304-341.504c0-188.416-158.72-341.504-354.304-341.504z m138.752 361.472c13.824 0 25.088 10.752 25.088 24.576s-11.264 24.576-25.088 24.576h-113.152V701.44c0 13.312-11.264 24.064-25.088 24.064s-25.088-10.752-25.088-24.064v-120.832H353.792c-13.824 0-25.088-10.752-25.088-24.576s11.264-24.576 25.088-24.576h113.664V474.624H354.304c-13.824 0-25.088-10.752-25.088-24.576 0-13.312 11.264-24.064 25.088-24.064h113.152v-6.656L386.56 340.48l-0.512-0.512c-9.216-9.728-8.704-24.576 1.024-33.28 9.728-9.216 25.088-9.216 34.816-0.512l0.512 0.512 69.632 68.096 70.144-68.608c9.728-9.728 25.6-9.728 35.84-0.512 9.728 9.216 10.24 24.576 0.512 34.304l-80.384 78.848v7.68h113.152c13.824 0 25.088 10.752 25.088 24.064s-11.264 24.576-25.088 24.576h-113.152V532.48l113.152-0.512zM492.544 0C316.928 0 161.792 82.432 65.024 208.896l-32.256-17.92c-10.24-5.12-23.552-2.048-29.184 8.192-2.048 3.072-2.56 6.656-2.56 10.24H0.512l11.776 115.712 0.512 0.512c0.512 6.656 4.096 12.8 10.752 16.896 6.656 3.584 13.824 3.072 20.48 0.512l107.52-47.104v-0.512c4.096-2.048 7.68-4.096 9.728-8.192 5.632-9.728 2.56-21.504-6.656-27.648v-0.512L122.88 241.152c84.992-107.52 218.624-177.152 369.664-177.152 257.024 0 464.896 200.704 464.896 448s-207.872 448-464.896 448c-176.64 0-330.24-94.72-409.088-234.496l-60.416 26.112C112.64 913.408 289.28 1024 492.544 1024c293.376 0 531.456-229.376 531.456-512S785.92 0 492.544 0z" p-id="37245" fill="#ffffff"></path></svg>