<?xml version="1.0" encoding="UTF-8"?>
<svg width="24px" height="24px" viewBox="0 0 24 24" version="1.1" xmlns="http://www.w3.org/2000/svg" xmlns:xlink="http://www.w3.org/1999/xlink">
    <title>矩形</title>
    <g id="控件" stroke="none" stroke-width="1" fill="none" fill-rule="evenodd">
        <g id="编组-5备份-19" fill="#FFFFFF" fill-rule="nonzero">
            <g id="编组备份-2">
                <path d="M4.5,18 C4.22385763,18 4,17.7761424 4,17.5 C4,17.2545401 4.17687516,17.0503916 4.41012437,17.0080557 L4.5,17 L5,17 L5,17 L5,12 C5,11.4477153 5.44771525,11 6,11 L8,11 C8.55228475,11 9,11.4477153 9,12 L9,17 L10,17 L10,17 L10,9 C10,8.44771525 10.4477153,8 11,8 L13,8 C13.5522847,8 14,8.44771525 14,9 L14,17 L15,17 L15,17 L15,5 C15,4.44771525 15.4477153,4 16,4 L18,4 C18.5522847,4 19,4.44771525 19,5 L19,17 L19.5,17 C19.7761424,17 20,17.2238576 20,17.5 C20,17.7454599 19.8231248,17.9496084 19.5898756,17.9919443 L19.5,18 L4.5,18 Z" id="形状结合"></path>
            </g>
        </g>
    </g>
</svg>