<?xml version="1.0" standalone="no"?><!DOCTYPE svg PUBLIC "-//W3C//DTD SVG 1.1//EN" "http://www.w3.org/Graphics/SVG/1.1/DTD/svg11.dtd"><svg t="1663918665533" class="icon" viewBox="0 0 1024 1024" version="1.1" xmlns="http://www.w3.org/2000/svg" p-id="1507" xmlns:xlink="http://www.w3.org/1999/xlink" width="32" height="32"><path d="M875.925333 449.493333l7.082667-6.698666a35.328 35.328 0 0 0 9.770667-42.122667l-62.890667-134.272a36.736 36.736 0 0 0-38.965333-22.656l-37.248 4.949333a85.333333 85.333333 0 0 1-92.288-57.6l-11.776-35.328a39.253333 39.253333 0 0 0-38.954667-27.733333H410.837333a39.253333 39.253333 0 0 0-38.954666 27.733333l-8.874667 31.104a85.333333 85.333333 0 0 1-93.781333 61.013334l-33.834667-4.693334c-18.474667-3.456-36.906667 6.101333-43.861333 22.698667L133.12 400.672a34.261333 34.261333 0 0 0 4.864 42.122667l7.338667 6.912a85.333333 85.333333 0 0 1 0 124.16l-7.338667 6.869333a40.448 40.448 0 0 0-4.864 46.293333l82.816 134.709334c6.869333 14.08 22.954667 21.930667 38.997333 18.986666l13.354667-2.048a85.333333 85.333333 0 0 1 94.976 61.013334l8.106667 28.544a39.253333 39.253333 0 0 0 38.997333 27.733333h199.776a39.253333 39.253333 0 0 0 38.997333-27.733333l11.008-32.768a85.333333 85.333333 0 0 1 94.549334-57.045334l11.349333 1.834667c17.365333 2.986667 34.816-4.608 43.861333-18.944l77.962667-134.752a33.92 33.92 0 0 0-4.864-46.293333l-6.869333-6.442667a85.333333 85.333333 0 0 1-0.213334-124.330667zM516.512 692.266667a173.162667 173.162667 0 0 1-124.864-50.986667 172.629333 172.629333 0 0 1-50.282667-125.034667 172.629333 172.629333 0 0 1 50.88-124.501333 173.162667 173.162667 0 0 1 124.8-50.389333A176.117333 176.117333 0 0 1 693.333333 517.312 176.128 176.128 0 0 1 517.056 693.333333l-0.533333-1.066666z m0.842667-265.6A90.666667 90.666667 0 1 0 608 517.365333a90.645333 90.645333 0 0 0-90.645333-90.645333V426.666667z" p-id="1508" fill="#ffffff"></path></svg>