<?xml version="1.0" encoding="UTF-8"?>
<svg width="24px" height="24px" viewBox="0 0 24 24" version="1.1" xmlns="http://www.w3.org/2000/svg" xmlns:xlink="http://www.w3.org/1999/xlink">
    <title>矩形</title>
    <g id="控件" stroke="none" stroke-width="1" fill="none" fill-rule="evenodd">
        <g id="编组备份-2">
            <rect id="矩形" x="0" y="0" width="24" height="24"></rect>
            <path d="M12,4.5 C10.6745166,4.5 9.58996133,5.53153594 9.50531768,6.83562431 L9.5,7 L8.5,7 C8.5,5.06700338 10.0670034,3.5 12,3.5 C13.8685634,3.5 15.3951264,4.9642776 15.4948211,6.8079648 L15.5,7 L17.0739689,7 C17.5965052,7 18.0309466,7.40230633 18.0710233,7.9233035 L18.9171772,18.9233035 C18.9595355,19.4739615 18.5474772,19.9546962 17.9968192,19.9970545 C17.9713008,19.9990174 17.9457165,20 17.9201227,20 L6.07987729,20 C5.52759254,20 5.07987729,19.5522847 5.07987729,19 C5.07987729,18.9744062 5.08085985,18.9488219 5.08282281,18.9233035 L5.92897665,7.9233035 C5.96905336,7.40230633 6.40349483,7 6.92603114,7 L14.5,7 C14.5,5.61928813 13.3807119,4.5 12,4.5 Z" id="形状结合" fill="#FFFFFF"></path>
        </g>
    </g>
</svg>