<?xml version="1.0" encoding="UTF-8"?>
<svg width="24px" height="24px" viewBox="0 0 24 24" version="1.1" xmlns="http://www.w3.org/2000/svg" xmlns:xlink="http://www.w3.org/1999/xlink">
    <title>矩形</title>
    <g id="控件" stroke="none" stroke-width="1" fill="none" fill-rule="evenodd">
        <g id="编组-5备份">
            <g id="编组备份-2">
                <rect id="矩形" x="0" y="0" width="24" height="24"></rect>
            </g>
            <path d="M13.8859558,4.2233306 C14.0452814,5.16435568 14.5056516,5.94110785 15.2499266,6.3708152 C15.9939373,6.80037 16.8964327,6.81083137 17.7907872,6.47992635 C18.6838069,7.41327794 19.3215387,8.53872914 19.6758518,9.74600656 C18.9415435,10.3550724 18.4999266,11.1414256 18.4999266,11.9999803 C18.4999266,12.8593033 18.9423342,13.6462955 19.6764107,14.2554397 C19.5018145,14.8513697 19.253046,15.437209 18.9281298,15.9999803 C18.603157,16.5628497 18.2201127,17.0712883 17.790934,17.5220976 C16.8964327,17.1891293 15.9939373,17.1995906 15.2499266,17.6291454 C14.5065355,18.0583425 14.0463753,18.8337605 13.8854051,19.7726913 C12.6635389,20.0713175 11.369745,20.0817885 10.1138974,19.77663 C9.9544639,18.8354231 9.49411437,18.0588025 8.74992656,17.6291454 C8.00591581,17.1995906 7.10342039,17.1891293 6.20906588,17.5200343 C5.31585624,16.5864836 4.67804282,15.4607521 4.32377497,14.2531827 C5.05830966,13.6448882 5.49992656,12.8585351 5.49992656,11.9999803 C5.49992656,11.1410414 5.05791439,10.3543688 4.32442666,9.745338 C4.49813679,9.14835981 4.74687125,8.56264063 5.07172333,7.99998032 C5.39645469,7.43752911 5.77917131,6.92942782 6.20796267,6.4788679 C7.10342039,6.81083137 8.00591581,6.80037 8.74992656,6.3708152 C9.49340889,5.94156547 9.95359084,5.16600971 10.1145073,4.22692344 L10.1676284,4.21261497 C11.3745145,3.92840275 12.6486521,3.9226781 13.8859558,4.2233306 Z M12,9 C10.3431458,9 9,10.3431458 9,12 C9,13.6568542 10.3431458,15 12,15 C13.6568542,15 15,13.6568542 15,12 C15,10.3431458 13.6568542,9 12,9 Z" id="形状结合" fill="#FFFFFF"></path>
        </g>
    </g>
</svg>