<?xml version="1.0" standalone="no"?><!DOCTYPE svg PUBLIC "-//W3C//DTD SVG 1.1//EN" "http://www.w3.org/Graphics/SVG/1.1/DTD/svg11.dtd"><svg t="1667746589954" class="icon" viewBox="0 0 1024 1024" version="1.1" xmlns="http://www.w3.org/2000/svg" p-id="7180" xmlns:xlink="http://www.w3.org/1999/xlink" width="64" height="64"><path d="M512 332.8a179.2 179.2 0 1 0 0 358.4 179.2 179.2 0 0 0 0-358.4z m0 308.992c-70.6048 0-128-58.2144-128-129.792S441.3952 382.208 512 382.208c70.5536 0 128 58.2144 128 129.792s-57.4464 129.792-128 129.792z" p-id="7181" fill="#ffffff"></path><path d="M795.9552 193.7408l-153.6-91.3408a254.8224 254.8224 0 0 1-260.7104 0l-153.6 91.3408c0 90.9312-47.7696 175.104-125.6448 221.44v193.6896a257.536 257.536 0 0 1 125.6448 221.44l153.6 91.3408A254.8224 254.8224 0 0 1 642.3552 921.6l153.6-91.3408c0-90.9312 47.7696-175.104 125.6448-221.44V415.1808a257.5872 257.5872 0 0 1-125.6448-221.44zM870.4 581.2224a311.0912 311.0912 0 0 0-124.16 218.7776l-105.472 62.72a305.9712 305.9712 0 0 0-257.6384 0l-105.472-62.72A310.784 310.784 0 0 0 153.6 581.2224V442.7776a311.0912 311.0912 0 0 0 124.16-218.7776l105.472-62.72a305.8688 305.8688 0 0 0 257.5872-0.0512l105.472 62.72A310.9888 310.9888 0 0 0 870.4 442.7776v138.4448z" p-id="7182" fill="#ffffff"></path></svg>