<?xml version="1.0" standalone="no"?><!DOCTYPE svg PUBLIC "-//W3C//DTD SVG 1.1//EN" "http://www.w3.org/Graphics/SVG/1.1/DTD/svg11.dtd"><svg t="1667746530720" class="icon" viewBox="0 0 1024 1024" version="1.1" xmlns="http://www.w3.org/2000/svg" p-id="5138" xmlns:xlink="http://www.w3.org/1999/xlink" width="64" height="64"><path d="M229.333333 85.333333C308.864 85.333333 373.333333 149.802667 373.333333 229.333333S308.864 373.333333 229.333333 373.333333 85.333333 308.864 85.333333 229.333333 149.802667 85.333333 229.333333 85.333333z m0 64a80 80 0 1 0 0 160 80 80 0 0 0 0-160zM794.666667 85.333333C874.197333 85.333333 938.666667 149.802667 938.666667 229.333333S874.197333 373.333333 794.666667 373.333333 650.666667 308.864 650.666667 229.333333 715.136 85.333333 794.666667 85.333333z m0 64a80 80 0 1 0 0 160 80 80 0 0 0 0-160zM229.333333 650.666667C308.864 650.666667 373.333333 715.136 373.333333 794.666667S308.864 938.666667 229.333333 938.666667 85.333333 874.197333 85.333333 794.666667 149.802667 650.666667 229.333333 650.666667z m0 64a80 80 0 1 0 0 160 80 80 0 0 0 0-160zM794.666667 650.666667C874.197333 650.666667 938.666667 715.136 938.666667 794.666667S874.197333 938.666667 794.666667 938.666667 650.666667 874.197333 650.666667 794.666667 715.136 650.666667 794.666667 650.666667z m0 64a80 80 0 1 0 0 160 80 80 0 0 0 0-160z" p-id="5139" fill="#ffffff"></path><path d="M320 170.666667h384v85.333333H320z" p-id="5140" fill="#ffffff"></path><path d="M373.333333 394.666667m42.666667 0l192 0q42.666667 0 42.666667 42.666666l0 0q0 42.666667-42.666667 42.666667l-192 0q-42.666667 0-42.666667-42.666667l0 0q0-42.666667 42.666667-42.666666Z" p-id="5141" fill="#ffffff"></path><path d="M373.333333 565.333333m42.666667 0l192 0q42.666667 0 42.666667 42.666667l0 0q0 42.666667-42.666667 42.666667l-192 0q-42.666667 0-42.666667-42.666667l0 0q0-42.666667 42.666667-42.666667Z" p-id="5142" fill="#ffffff"></path><path d="M170.666667 341.333333h85.333333v320h-85.333333zM768 320h85.333333v224a42.666667 42.666667 0 1 1-85.333333 0V320zM320 768h224a42.666667 42.666667 0 1 1 0 85.333333H320v-85.333333z" p-id="5143" fill="#ffffff"></path></svg>