<?xml version="1.0" standalone="no"?><!DOCTYPE svg PUBLIC "-//W3C//DTD SVG 1.1//EN" "http://www.w3.org/Graphics/SVG/1.1/DTD/svg11.dtd"><svg t="1638257562465" class="icon" viewBox="0 0 1024 1024" version="1.1" xmlns="http://www.w3.org/2000/svg" p-id="1227" xmlns:xlink="http://www.w3.org/1999/xlink" width="48" height="48"><defs><style type="text/css"></style></defs><path d="M275.136 320.384H160.384a32 32 0 0 0 0 64h192a32 32 0 0 0 32-32v-192a32 32 0 1 0-64 0v114.752L183.04 137.792a32 32 0 1 0-45.248 45.248l137.344 137.344z m428.48-45.248V160.384a32 32 0 0 0-64 0v192a32 32 0 0 0 32 32h192a32 32 0 0 0 0-64h-114.752l137.344-137.344a32 32 0 1 0-45.248-45.248l-137.344 137.344zM275.2 703.616H160.384a32 32 0 0 1 0-64h192a32 32 0 0 1 32 32v192a32 32 0 0 1-64 0v-114.752L183.04 886.208a32 32 0 1 1-45.248-45.248l137.344-137.344z m428.48 45.248v114.752a32 32 0 0 1-64 0v-192a32 32 0 0 1 32-32h192a32 32 0 0 1 0 64h-114.752l137.344 137.344a32 32 0 1 1-45.248 45.248l-137.344-137.344z" fill="#666666" p-id="1228"></path></svg>