<?xml version="1.0" encoding="UTF-8"?>
<svg width="24px" height="24px" viewBox="0 0 24 24" version="1.1" xmlns="http://www.w3.org/2000/svg" xmlns:xlink="http://www.w3.org/1999/xlink">
    <title>矩形</title>
    <g id="控件" stroke="none" stroke-width="1" fill="none" fill-rule="evenodd">
        <g id="编组-5备份-18" fill="#FFFFFF" fill-rule="nonzero">
            <g id="编组备份-2">
                <path d="M18,5 C19.1045695,5 20,5.8954305 20,7 L20,15 C20,16.1045695 19.1045695,17 18,17 L15.707,17 L17.8535534,19.1464466 L17.9114088,19.2156945 C18.0464049,19.4105626 18.0271197,19.679987 17.8535534,19.8535534 C17.6582912,20.0488155 17.3417088,20.0488155 17.1464466,19.8535534 L17.1464466,19.8535534 L14.293,17 L9.706,17 L6.85355339,19.8535534 C6.65829124,20.0488155 6.34170876,20.0488155 6.14644661,19.8535534 C5.97288026,19.679987 5.95359511,19.4105626 6.08859116,19.2156945 L6.14644661,19.1464466 L8.292,17 L6,17 C4.8954305,17 4,16.1045695 4,15 L4,7 C4,5.8954305 4.8954305,5 6,5 L18,5 Z M17.1764706,13 L14.3529412,13 C14.0930425,13 13.8823529,13.2106895 13.8823529,13.4705882 C13.8823529,13.7016093 14.0488237,13.8937491 14.2683523,13.9335947 L14.3529412,13.9411765 L17.1764706,13.9411765 C17.4363693,13.9411765 17.6470588,13.7304869 17.6470588,13.4705882 C17.6470588,13.2106895 17.4363693,13 17.1764706,13 Z M9.17647059,8.29411764 C7.61707836,8.29411764 6.35294119,9.55825481 6.35294119,11.117647 C6.35294119,12.6770393 7.61707835,13.9411765 9.17647058,13.9411765 C10.6781075,13.9411765 11.9059552,12.768945 11.994847,11.2896486 L12,11.1176471 L9.17647059,11.1176471 L9.17647059,8.29411764 Z M8.23529412,9.48752941 L8.23529412,12.0588235 L10.8065882,12.0588235 C10.3805855,12.7965953 9.51217649,13.1562746 8.6892756,12.9357759 C7.86637471,12.7152773 7.29415511,11.9695775 7.29411764,11.1176471 C7.29411764,10.4451642 7.65290688,9.82377083 8.23529412,9.48752941 Z M17.1764706,10.6470588 L14.3529412,10.6470588 C14.0930425,10.6470588 13.8823529,10.8577484 13.8823529,11.1176471 C13.8823529,11.3486681 14.0488237,11.5408079 14.2683523,11.5806535 L14.3529412,11.5882353 L17.1764706,11.5882353 C17.4363693,11.5882353 17.6470588,11.3775458 17.6470588,11.1176471 C17.6470588,10.8577484 17.4363693,10.6470588 17.1764706,10.6470588 Z M9.64705883,7.82352941 L9.64705883,10.6470588 L12.4705882,10.6470588 L12.4632619,10.4437071 C12.4145836,9.76919404 12.1249724,9.13189883 11.6435956,8.65052203 C11.1140811,8.12100755 10.3959054,7.82352941 9.64705883,7.82352941 Z M17.1764706,8.29411764 L14.3529412,8.29411764 C14.0930425,8.29411764 13.8823529,8.50480717 13.8823529,8.76470588 C13.8823529,8.99572696 14.0488237,9.18786671 14.2683523,9.22771232 L14.3529412,9.23529413 L17.1764706,9.23529413 C17.4363693,9.23529413 17.6470588,9.02460459 17.6470588,8.76470588 C17.6470588,8.50480717 17.4363693,8.29411764 17.1764706,8.29411764 Z" id="形状结合"></path>
            </g>
        </g>
    </g>
</svg>