<?xml version="1.0" encoding="UTF-8"?>
<svg width="24px" height="24px" viewBox="0 0 24 24" version="1.1" xmlns="http://www.w3.org/2000/svg" xmlns:xlink="http://www.w3.org/1999/xlink">
    <title>矩形</title>
    <g id="控件" stroke="none" stroke-width="1" fill="none" fill-rule="evenodd">
        <g id="编组备份-2">
            <rect id="矩形" x="0" y="0" width="24" height="24"></rect>
            <path d="M17,4 C17.5522847,4 18,4.44771525 18,5 L18,18.8095536 C18,19.3618384 17.5522847,19.8095536 17,19.8095536 C16.766662,19.8095536 16.54067,19.7279558 16.3611549,19.578889 L12.0000381,15.9574796 L7.63884034,19.5789102 C7.21394596,19.931732 6.58348244,19.8733056 6.23066066,19.4484113 C6.08159631,19.2688968 6,19.0429068 6,18.8095709 L6,5 C6,4.44771525 6.44771525,4 7,4 L17,4 Z M12,6.5 C10.8954305,6.5 10,7.3954305 10,8.5 C10,9.6045695 10.8954305,10.5 12,10.5 C13.1045695,10.5 14,9.6045695 14,8.5 C14,7.3954305 13.1045695,6.5 12,6.5 Z M12,7.5 C12.5522847,7.5 13,7.94771525 13,8.5 C13,9.05228475 12.5522847,9.5 12,9.5 C11.4477153,9.5 11,9.05228475 11,8.5 C11,7.94771525 11.4477153,7.5 12,7.5 Z" id="形状结合" fill="#FFFFFF"></path>
        </g>
    </g>
</svg>