<?xml version="1.0" standalone="no"?><!DOCTYPE svg PUBLIC "-//W3C//DTD SVG 1.1//EN" "http://www.w3.org/Graphics/SVG/1.1/DTD/svg11.dtd"><svg class="icon" width="48px" height="48.00px" viewBox="0 0 1024 1024" version="1.1" xmlns="http://www.w3.org/2000/svg"><path fill="#ffffff" d="M512 170.666667a341.333333 341.333333 0 1 1 0 682.666666 341.333333 341.333333 0 0 1 0-682.666666z m-73.216 217.130666a21.333333 21.333333 0 0 0-29.653333 29.653334l2.432 2.986666L460.501333 469.333333H426.666667l-3.84 0.341334A21.333333 21.333333 0 0 0 426.666667 512h64v42.666667H426.666667l-3.84 0.341333A21.333333 21.333333 0 0 0 426.666667 597.333333h64v64l0.341333 3.84a21.333333 21.333333 0 0 0 42.325333-3.84V597.333333H597.333333l3.84-0.341333A21.333333 21.333333 0 0 0 597.333333 554.666667h-64v-42.666667H597.333333l3.84-0.341333A21.333333 21.333333 0 0 0 597.333333 469.333333h-33.877333l48.981333-48.896 2.432-2.986666a21.333333 21.333333 0 0 0-32.64-27.221334L512 460.501333l-70.229333-70.272z"  /></svg>